<?xml version="1.0" encoding="UTF-8" standalone="no" ?>
<svg viewBox="0 0 2048 2048" xmlns="http://www.w3.org/2000/svg">
<!-- This file was auto-generated. Copy your changes to a new file. -->
<g transform="scale(1, -1) translate(0, -2048)">
    <path
        d="
            M1290 582L1290 582L1248 684Q1146 706 1024 706L1024 706Q903 706 802 684L802 684L760 583Q884 614 1024 614L1024 614Q1162 614 1290 582Z
            M1206 788L1206 788L1177 858L1177 885Q1101 896 1024 896L1024 896Q949 896 872 885L872 885L871 858L844 788Q929 803 1024 803L1024 803Q1120 803 1206 788Z
            M1082 410L1171 410Q1131 440 1091 505L1091 505L1059 505Q1059 456 1082 410L1082 410Z
            M875 410L965 410Q988 459 988 505L988 505L956 505Q917 441 875 410L875 410Z
            M1024 392L1024 392Q1010 335 990 313Q970 291 937 267L937 267Q901 242 852 224.50Q803 207 743 216L743 216L462 255Q445 257 431.50 255Q418 253 406 253L406 253Q385 253 352.50 243.50Q320 234 302 216L302 216L205 375Q223 395 237 403Q251 411 270 420L270 420Q328 447 394 453L394 453Q422 455 449 454Q476 453 505 456L505 456Q559 447 613.50 439.50Q668 432 723 424L723 424Q783 424 804 436L804 436Q815 442 839 458Q863 474 887 505L887 505Q834 511 779 525.50Q724 540 682 556L682 556L786 814Q708 859 677 886.50Q646 914 628 950L628 950Q602 996 594.50 1039Q587 1082 588 1116L588 1116Q589 1176 616.50 1248.50Q644 1321 720 1378L720 1378Q783 1426 843 1477Q903 1528 962 1596L962 1596Q888 1634 888 1717L888 1717Q888 1773 927.50 1813Q967 1853 1024 1853L1024 1853Q1080 1853 1120 1813Q1160 1773 1160 1717L1160 1717Q1160 1635 1086 1596L1086 1596Q1144 1528 1203.50 1477Q1263 1426 1328 1378L1328 1378Q1403 1321 1430 1248.50Q1457 1176 1459 1116L1459 1116Q1459 1082 1452 1039Q1445 996 1420 950L1420 950Q1400 914 1369.50 886.50Q1339 859 1262 814L1262 814L1366 556Q1322 540 1267 525.50Q1212 511 1161 505L1161 505Q1184 474 1208 458Q1232 442 1244 436L1244 436Q1265 424 1325 424L1325 424Q1379 432 1433.50 439.50Q1488 447 1543 456L1543 456Q1570 453 1597.50 454Q1625 455 1654 453L1654 453Q1718 447 1778 420L1778 420Q1796 411 1810.50 403Q1825 395 1843 375L1843 375L1745 216Q1727 234 1694.50 243.50Q1662 253 1642 253L1642 253Q1629 253 1615.50 255Q1602 257 1585 255L1585 255L1305 216Q1245 207 1193.50 224Q1142 241 1109 269L1109 269Q1076 296 1056.50 315.50Q1037 335 1024 392Z
            M899 1137L987 1136L987 1051Q987 1014 1024 1014L1024 1014L1024 1014Q1061 1014 1061 1051L1061 1051L1061 1137L1151 1137Q1186 1137 1186 1173L1186 1173L1186 1173Q1186 1209 1151 1209L1151 1209L1061 1209L1061 1299Q1061 1336 1024 1336L1024 1336L1024 1336Q987 1336 987 1299L987 1299L987 1209L899 1209Q864 1209 864 1173L864 1173L864 1173Q864 1137 899 1137L899 1137Z
        "
    />
</g>
</svg>
