<?xml version="1.0" encoding="UTF-8" standalone="no" ?>
<!-- This file was auto-generated. Copy your changes to a new file. -->
<svg
    width="512"
    height="512"
    viewBox="0 0 2048 2048"
    xmlns="http://www.w3.org/2000/svg"
>
<path
    d="
        M1290 1466L1290 1466 1248 1364Q1146 1342 1024 1342L1024 1342Q903 1342 802 1364L802 1364 760 1465Q884 1434 1024 1434L1024 1434Q1162 1434 1290 1466Z
        M1206 1260L1206 1260 1177 1190 1177 1163Q1101 1152 1024 1152L1024 1152Q949 1152 872 1163L872 1163 871 1190 844 1260Q929 1245 1024 1245L1024 1245Q1120 1245 1206 1260Z
        M1082 1638L1171 1638Q1131 1608 1091 1543L1091 1543 1059 1543Q1059 1592 1082 1638L1082 1638Z
        M875 1638L965 1638Q988 1589 988 1543L988 1543 956 1543Q917 1607 875 1638L875 1638Z
        M1024 1656L1024 1656Q1010 1713 990 1735 970 1757 937 1781L937 1781Q901 1806 852 1823.5 803 1841 743 1832L743 1832 462 1793Q445 1791 431.5 1793 418 1795 406 1795L406 1795Q385 1795 352.5 1804.5 320 1814 302 1832L302 1832 205 1673Q223 1653 237 1645 251 1637 270 1628L270 1628Q328 1601 394 1595L394 1595Q422 1593 449 1594 476 1595 505 1592L505 1592Q559 1601 613.5 1608.5 668 1616 723 1624L723 1624Q783 1624 804 1612L804 1612Q815 1606 839 1590 863 1574 887 1543L887 1543Q834 1537 779 1522.5 724 1508 682 1492L682 1492 786 1234Q708 1189 677 1161.5 646 1134 628 1098L628 1098Q602 1052 594.5 1009 587 966 588 932L588 932Q589 872 616.5 799.5 644 727 720 670L720 670Q783 622 843 571 903 520 962 452L962 452Q888 414 888 331L888 331Q888 275 927.5 235 967 195 1024 195L1024 195Q1080 195 1120 235 1160 275 1160 331L1160 331Q1160 413 1086 452L1086 452Q1144 520 1203.5 571 1263 622 1328 670L1328 670Q1403 727 1430 799.5 1457 872 1459 932L1459 932Q1459 966 1452 1009 1445 1052 1420 1098L1420 1098Q1400 1134 1369.5 1161.5 1339 1189 1262 1234L1262 1234 1366 1492Q1322 1508 1267 1522.5 1212 1537 1161 1543L1161 1543Q1184 1574 1208 1590 1232 1606 1244 1612L1244 1612Q1265 1624 1325 1624L1325 1624Q1379 1616 1433.5 1608.5 1488 1601 1543 1592L1543 1592Q1570 1595 1597.5 1594 1625 1593 1654 1595L1654 1595Q1718 1601 1778 1628L1778 1628Q1796 1637 1810.5 1645 1825 1653 1843 1673L1843 1673 1745 1832Q1727 1814 1694.5 1804.5 1662 1795 1642 1795L1642 1795Q1629 1795 1615.5 1793 1602 1791 1585 1793L1585 1793 1305 1832Q1245 1841 1193.5 1824 1142 1807 1109 1779L1109 1779Q1076 1752 1056.5 1732.5 1037 1713 1024 1656Z
        M899 911L987 912 987 997Q987 1034 1024 1034L1024 1034 1024 1034Q1061 1034 1061 997L1061 997 1061 911 1151 911Q1186 911 1186 875L1186 875 1186 875Q1186 839 1151 839L1151 839 1061 839 1061 749Q1061 712 1024 712L1024 712 1024 712Q987 712 987 749L987 749 987 839 899 839Q864 839 864 875L864 875 864 875Q864 911 899 911L899 911Z
    "
/>
</svg>
