<?xml version="1.0" encoding="UTF-8" standalone="no" ?>
<!-- This file was auto-generated. Copy your changes to a new file. -->
<svg
    width="512"
    height="512"
    viewBox="0 0 2048 2048"
    xmlns="http://www.w3.org/2000/svg"
>
<g transform="scale(1, -1) translate(0, -2048)">
    <path
        d="
            M1161 1843L1161 1706L1331 1706L1331 1843L1605 1843L1605 1468L1383 1297L1383 819L1553 649L1553 444L1706 444L1706 205L341 205L341 444L494 444L494 649L665 819L665 1297L443 1468L443 1843L716 1843L716 1706L887 1706L887 1843L1161 1843Z
            M1484 460L564 460L564 358L1484 358L1484 460Z
            M1535 1552L1024 1552L512 1552L512 1506L585 1451L1464 1451L1535 1506L1535 1552Z
            M1374 1383L1024 1383L674 1383L734 1336L734 1279L1314 1279L1314 1336L1374 1383Z
            M1314 837L1024 837L734 837L734 791L674 733L1374 733L1314 791L1314 837Z
            M1438 665L1024 665L610 665L564 622L564 564L1484 564L1484 622L1438 665Z
        "
    />
</g>
</svg>
