<?xml version="1.0" encoding="UTF-8" standalone="no" ?>
<!-- This file was auto-generated. Copy your changes to a new file. -->
<svg
    width="512"
    height="512"
    viewBox="0 0 2048 2048"
    xmlns="http://www.w3.org/2000/svg"
>
<g transform="scale(1, -1) translate(0, -2048)">
    <path
        d="
            M490 683L490 683Q494 692 503 710L503 710Q520 752 520 760L520 760Q518 788 491 788L491 788Q471 788 444 731L444 731Q440 723 432 717L432 717Q405 689 440 670L440 670L440 670Q472 651 490 683Z
            M1080 1054L1080 1054Q1150 1146 1149 1259L1149 1259Q1145 1292 1111 1292L1111 1292Q1065 1292 1075 1258L1075 1258Q1078 1203 1064 1167L1064 1167Q1041 1110 1013 1082L1013 1082Q998 1052 1031 1038L1031 1038L1031 1038Q1063 1023 1080 1054Z
            M819 1542L819 1542Q814 1578 821 1620L821 1620Q761 1608 708 1564L708 1564Q676 1547 693 1517L693 1517Q710 1486 740 1507L740 1507Q761 1518 778.50 1527.50Q796 1537 819 1542Z
            M1615 274L1756 274Q1755 274 1758 328.50Q1761 383 1761 446L1761 446Q1762 571 1761 704.50Q1760 838 1725 971L1725 971Q1691 1099 1650 1189.50Q1609 1280 1561 1346L1561 1346Q1489 1454 1365 1529Q1241 1604 1106 1627L1106 1627Q1110 1604 1108.50 1580Q1107 1556 1109 1534L1109 1534Q1206 1501 1292 1452Q1378 1403 1418 1346L1418 1346Q1466 1280 1507 1189.50Q1548 1099 1582 971L1582 971Q1616 838 1617 704.50Q1618 571 1618 446L1618 446Q1618 383 1615 328.50Q1612 274 1615 274L1615 274Z
            M1079 1697L1079 1697Q1236 1687 1370 1616Q1504 1545 1598 1434L1598 1434Q1664 1356 1722.50 1246Q1781 1136 1816 1013L1816 1013Q1856 870 1866.50 712.50Q1877 555 1877 421L1877 421L1877 203Q1877 203 1721.50 203Q1566 203 1318 203L1318 203L647 203Q638 203 638.50 252Q639 301 645 331L645 331Q649 355 664 399Q679 443 714 506L714 506Q730 538 790 599.50Q850 661 928 742L928 742Q973 788 998.50 858Q1024 928 1020 985L1020 985Q983 955 939 936L939 936Q727 860 632 716L632 716Q625 707 587 635L587 635Q567 597 553 583L553 583Q534 564 498 562L498 562Q442 559 411 616L411 616Q369 604 336 606L336 606Q280 627 255 651L255 651Q204 702 188.50 753Q173 804 173 863L173 863Q173 947 277 1085L277 1085Q399 1244 407 1327L407 1327Q407 1363 414 1408L414 1408Q420 1439 439 1468L439 1468Q452 1488 456.50 1495.50Q461 1503 473 1518L473 1518Q482 1530 488 1536.50Q494 1543 503 1554L503 1554Q514 1567 531 1584L531 1584Q478 1730 488 1885L488 1885Q687 1814 822 1662L822 1662Q855 1775 952 1845L952 1845Q1032 1789 1079 1697Z
            M404 861L404 861Q433 881 410 909L410 909Q386 932 357 913L357 913Q296 873 292 808L292 808Q293 775 331 777L331 777Q367 780 366 814L366 814Q374 846 404 861Z
            M656 1359L656 1359Q678 1370 678 1370L678 1370Q708 1382 697 1414L697 1414Q685 1444 651 1434L651 1434Q533 1391 488 1276L488 1276Q481 1243 512 1231L512 1231Q543 1221 554 1253L554 1253Q562 1270 566 1275L566 1275Q577 1266 595 1263L595 1263Q656 1253 666 1317L666 1317Q669 1339 656 1359Z
        "
    />
</g>
</svg>
