<?xml version="1.0" encoding="UTF-8" standalone="no" ?>
<!-- This file was auto-generated. Copy your changes to a new file. -->
<svg
    width="512"
    height="512"
    viewBox="0 0 2048 2048"
    xmlns="http://www.w3.org/2000/svg"
>
<path
    d="
        M1537 1345L1588 1255Q1505 1225 1354.5 1205.5 1204 1186 1022 1186L1022 1186Q844 1186 696 1204.5 548 1223 463 1253L463 1253 513 1344Q597 1319 731 1308 865 1297 1024 1297L1024 1297Q1183 1297 1318 1308 1453 1319 1537 1345L1537 1345Z
        M1814 587L1814 587Q1757 587 1717 547.5 1677 508 1677 451L1677 451Q1677 395 1717 354.5 1757 314 1814 314L1814 314Q1870 314 1910 354.5 1950 395 1950 451L1950 451Q1950 508 1910 547.5 1870 587 1814 587Z
        M236 587L236 587Q179 587 139.5 547.5 100 508 100 451L100 451Q100 395 139.5 354.5 179 314 236 314L236 314Q293 314 333 354.5 373 395 373 451L373 451Q373 508 333 547.5 293 587 236 587Z
        M1444 477L1444 477Q1387 477 1347.5 437.5 1308 398 1308 341L1308 341Q1308 285 1347.5 245 1387 205 1444 205L1444 205Q1501 205 1541 245 1581 285 1581 341L1581 341Q1581 398 1541 437.5 1501 477 1444 477Z
        M604 477L604 477Q547 477 507 437.5 467 398 467 341L467 341Q467 285 507 245 547 205 604 205L604 205Q660 205 700 245 740 285 740 341L740 341Q740 398 700 437.5 660 477 604 477Z
        M1575 1522L1640 1765Q1591 1808 1420 1837 1249 1866 1026 1866L1026 1866Q799 1866 627 1836 455 1806 410 1761L410 1761 473 1521 445 1364 357 1211 272 589 321 570 595 1032 601 482 669 470 878 1023 990 428 1059 428 1171 1021 1378 470 1447 482 1453 1032 1728 569 1775 591 1692 1210 1603 1363 1575 1522Z
        M1544 1733L1544 1733 1514 1615Q1319 1570 1024 1570L1024 1570Q732 1570 536 1615L536 1615 504 1734Q694 1676 1025 1676L1025 1676Q1184 1676 1320 1692 1456 1708 1544 1733Z
        M1502 1535L1518 1434Q1334 1383 1028 1383L1028 1383Q720 1383 532 1435L532 1435 547 1536Q736 1487 1028 1487L1028 1487Q1319 1487 1502 1535L1502 1535Z
        M1024 427L1024 427Q967 427 927.5 387 888 347 888 290L888 290Q888 234 927.5 194 967 154 1024 154L1024 154Q1080 154 1120.5 194 1161 234 1161 290L1161 290Q1161 347 1120.5 387 1080 427 1024 427Z
    "
/>
</svg>
