<?xml version="1.0" encoding="UTF-8" standalone="no" ?>
<!-- This file was auto-generated. Copy your changes to a new file. -->
<svg
    width="512"
    height="512"
    viewBox="0 0 2048 2048"
    xmlns="http://www.w3.org/2000/svg"
>
<g transform="scale(1, -1) translate(0, -2048)">
    <path
        d="
            M1564 205L1024 205L484 205Q444 305 444 414L444 414Q444 599 549 746Q654 893 819 956L819 956Q748 989 703.50 1055.50Q659 1122 659 1206L659 1206Q659 1311 729 1388Q799 1465 901 1477L901 1477Q820 1538 820 1638L820 1638Q820 1722 879.50 1782Q939 1842 1024 1842L1024 1842Q1108 1842 1168 1782Q1228 1722 1228 1638L1228 1638Q1228 1538 1147 1477L1147 1477Q1249 1465 1319 1388Q1389 1311 1389 1206L1389 1206Q1389 1122 1343.50 1055.50Q1298 989 1228 956L1228 956Q1393 893 1498 746Q1603 599 1603 414L1603 414Q1603 306 1564 205L1564 205Z
        "
    />
</g>
</svg>
