<?xml version="1.0" encoding="UTF-8" standalone="no" ?>
<!-- This file was auto-generated. Copy your changes to a new file. -->
<svg
    width="512"
    height="512"
    viewBox="0 0 2048 2048"
    xmlns="http://www.w3.org/2000/svg"
>
<path
    d="
        M490 1365L490 1365Q494 1356 503 1338L503 1338Q520 1296 520 1288L520 1288Q518 1260 491 1260L491 1260Q471 1260 444 1317L444 1317Q440 1325 432 1331L432 1331Q405 1359 440 1378L440 1378 440 1378Q472 1397 490 1365Z
        M1080 994L1080 994Q1150 902 1149 789L1149 789Q1145 756 1111 756L1111 756Q1065 756 1075 790L1075 790Q1078 845 1064 881L1064 881Q1041 938 1013 966L1013 966Q998 996 1031 1010L1031 1010 1031 1010Q1063 1025 1080 994Z
        M819 506L819 506Q814 470 821 428L821 428Q761 440 708 484L708 484Q676 501 693 531L693 531Q710 562 740 541L740 541Q761 530 778.5 520.5 796 511 819 506Z
        M1615 1774L1756 1774Q1755 1774 1758 1719.5 1761 1665 1761 1602L1761 1602Q1762 1477 1761 1343.5 1760 1210 1725 1077L1725 1077Q1691 949 1650 858.5 1609 768 1561 702L1561 702Q1489 594 1365 519 1241 444 1106 421L1106 421Q1110 444 1108.5 468 1107 492 1109 514L1109 514Q1206 547 1292 596 1378 645 1418 702L1418 702Q1466 768 1507 858.5 1548 949 1582 1077L1582 1077Q1616 1210 1617 1343.5 1618 1477 1618 1602L1618 1602Q1618 1665 1615 1719.5 1612 1774 1615 1774L1615 1774Z
        M1079 351L1079 351Q1236 361 1370 432 1504 503 1598 614L1598 614Q1664 692 1722.5 802 1781 912 1816 1035L1816 1035Q1856 1178 1866.5 1335.5 1877 1493 1877 1627L1877 1627 1877 1845Q1877 1845 1721.5 1845 1566 1845 1318 1845L1318 1845 647 1845Q638 1845 638.5 1796 639 1747 645 1717L645 1717Q649 1693 664 1649 679 1605 714 1542L714 1542Q730 1510 790 1448.5 850 1387 928 1306L928 1306Q973 1260 998.5 1190 1024 1120 1020 1063L1020 1063Q983 1093 939 1112L939 1112Q727 1188 632 1332L632 1332Q625 1341 587 1413L587 1413Q567 1451 553 1465L553 1465Q534 1484 498 1486L498 1486Q442 1489 411 1432L411 1432Q369 1444 336 1442L336 1442Q280 1421 255 1397L255 1397Q204 1346 188.5 1295 173 1244 173 1185L173 1185Q173 1101 277 963L277 963Q399 804 407 721L407 721Q407 685 414 640L414 640Q420 609 439 580L439 580Q452 560 456.5 552.5 461 545 473 530L473 530Q482 518 488 511.5 494 505 503 494L503 494Q514 481 531 464L531 464Q478 318 488 163L488 163Q687 234 822 386L822 386Q855 273 952 203L952 203Q1032 259 1079 351Z
        M404 1187L404 1187Q433 1167 410 1139L410 1139Q386 1116 357 1135L357 1135Q296 1175 292 1240L292 1240Q293 1273 331 1271L331 1271Q367 1268 366 1234L366 1234Q374 1202 404 1187Z
        M656 689L656 689Q678 678 678 678L678 678Q708 666 697 634L697 634Q685 604 651 614L651 614Q533 657 488 772L488 772Q481 805 512 817L512 817Q543 827 554 795L554 795Q562 778 566 773L566 773Q577 782 595 785L595 785Q656 795 666 731L666 731Q669 709 656 689Z
    "
/>
</svg>
