<?xml version="1.0" encoding="UTF-8" standalone="no" ?>
<svg viewBox="0 0 2048 2048" xmlns="http://www.w3.org/2000/svg">
<!-- This file was auto-generated. Copy your changes to a new file. -->
<g transform="scale(1, -1) translate(0, -2048)">
    <path
        d="
            M1537 703L1588 793Q1505 823 1354.50 842.50Q1204 862 1022 862L1022 862Q844 862 696 843.50Q548 825 463 795L463 795L513 704Q597 729 731 740Q865 751 1024 751L1024 751Q1183 751 1318 740Q1453 729 1537 703L1537 703Z
            M1814 1461L1814 1461Q1757 1461 1717 1500.50Q1677 1540 1677 1597L1677 1597Q1677 1653 1717 1693.50Q1757 1734 1814 1734L1814 1734Q1870 1734 1910 1693.50Q1950 1653 1950 1597L1950 1597Q1950 1540 1910 1500.50Q1870 1461 1814 1461Z
            M236 1461L236 1461Q179 1461 139.50 1500.50Q100 1540 100 1597L100 1597Q100 1653 139.50 1693.50Q179 1734 236 1734L236 1734Q293 1734 333 1693.50Q373 1653 373 1597L373 1597Q373 1540 333 1500.50Q293 1461 236 1461Z
            M1444 1571L1444 1571Q1387 1571 1347.50 1610.50Q1308 1650 1308 1707L1308 1707Q1308 1763 1347.50 1803Q1387 1843 1444 1843L1444 1843Q1501 1843 1541 1803Q1581 1763 1581 1707L1581 1707Q1581 1650 1541 1610.50Q1501 1571 1444 1571Z
            M604 1571L604 1571Q547 1571 507 1610.50Q467 1650 467 1707L467 1707Q467 1763 507 1803Q547 1843 604 1843L604 1843Q660 1843 700 1803Q740 1763 740 1707L740 1707Q740 1650 700 1610.50Q660 1571 604 1571Z
            M1575 526L1640 283Q1591 240 1420 211Q1249 182 1026 182L1026 182Q799 182 627 212Q455 242 410 287L410 287L473 527L445 684L357 837L272 1459L321 1478L595 1016L601 1566L669 1578L878 1025L990 1620L1059 1620L1171 1027L1378 1578L1447 1566L1453 1016L1728 1479L1775 1457L1692 838L1603 685L1575 526Z
            M1544 315L1544 315L1514 433Q1319 478 1024 478L1024 478Q732 478 536 433L536 433L504 314Q694 372 1025 372L1025 372Q1184 372 1320 356Q1456 340 1544 315Z
            M1502 513L1518 614Q1334 665 1028 665L1028 665Q720 665 532 613L532 613L547 512Q736 561 1028 561L1028 561Q1319 561 1502 513L1502 513Z
            M1024 1621L1024 1621Q967 1621 927.50 1661Q888 1701 888 1758L888 1758Q888 1814 927.50 1854Q967 1894 1024 1894L1024 1894Q1080 1894 1120.50 1854Q1161 1814 1161 1758L1161 1758Q1161 1701 1120.50 1661Q1080 1621 1024 1621Z
        "
    />
</g>
</svg>
