<?xml version="1.0" encoding="UTF-8" standalone="no" ?>
<!-- This file was auto-generated. Copy your changes to a new file. -->
<svg
    width="512"
    height="512"
    viewBox="0 0 2048 2048"
    xmlns="http://www.w3.org/2000/svg"
>
<path
    d="
        M1564 1843L1024 1843 484 1843Q444 1743 444 1634L444 1634Q444 1449 549 1302 654 1155 819 1092L819 1092Q748 1059 703.5 992.5 659 926 659 842L659 842Q659 737 729 660 799 583 901 571L901 571Q820 510 820 410L820 410Q820 326 879.5 266 939 206 1024 206L1024 206Q1108 206 1168 266 1228 326 1228 410L1228 410Q1228 510 1147 571L1147 571Q1249 583 1319 660 1389 737 1389 842L1389 842Q1389 926 1343.5 992.5 1298 1059 1228 1092L1228 1092Q1393 1155 1498 1302 1603 1449 1603 1634L1603 1634Q1603 1742 1564 1843L1564 1843Z
    "
/>
</svg>
