<?xml version="1.0" encoding="UTF-8" standalone="no" ?>
<!-- This file was auto-generated. Copy your changes to a new file. -->
<svg
    width="512"
    height="512"
    viewBox="0 0 2048 2048"
    xmlns="http://www.w3.org/2000/svg"
>
<path
    d="
        M1161 205L1161 342 1331 342 1331 205 1605 205 1605 580 1383 751 1383 1229 1553 1399 1553 1604 1706 1604 1706 1843 341 1843 341 1604 494 1604 494 1399 665 1229 665 751 443 580 443 205 716 205 716 342 887 342 887 205 1161 205Z
        M1484 1588L564 1588 564 1690 1484 1690 1484 1588Z
        M1535 496L1024 496 512 496 512 542 585 597 1464 597 1535 542 1535 496Z
        M1374 665L1024 665 674 665 734 712 734 769 1314 769 1314 712 1374 665Z
        M1314 1211L1024 1211 734 1211 734 1257 674 1315 1374 1315 1314 1257 1314 1211Z
        M1438 1383L1024 1383 610 1383 564 1426 564 1484 1484 1484 1484 1426 1438 1383Z
    "
/>
</svg>
