<?xml version="1.0" encoding="UTF-8" standalone="no" ?>
<svg viewBox="0 0 2048 2048" xmlns="http://www.w3.org/2000/svg">
<!-- This file was auto-generated. Copy your changes to a new file. -->
<g transform="scale(1, -1) translate(0, -2048)">
    <path
        d="
            M1133 865L1133 865Q1133 894 1139.50 947.50Q1146 1001 1160 1031L1160 1031Q1197 1112 1266 1181L1266 1181Q1286 1201 1352 1235L1352 1235Q1417 1267 1491 1267L1491 1267Q1547 1267 1602.50 1247.50Q1658 1228 1686 1188L1686 1188Q1711 1154 1711 1078L1711 1078Q1711 1018 1662 966L1662 966Q1630 933 1593 899.50Q1556 866 1522 821L1522 821Q1464 841 1360.50 852Q1257 863 1133 865Z
            M1060 787L1060 787Q1232 784 1342 770Q1452 756 1540 737L1540 737Q1595 791 1662 840Q1729 889 1756 924L1756 924Q1804 989 1804 1086L1804 1086Q1804 1175 1761 1235L1761 1235Q1684 1348 1526 1348L1526 1348Q1434 1348 1334 1308L1334 1308Q1243 1272 1202 1230L1202 1230Q1117 1148 1078 1014L1078 1014Q1063 968 1061.50 897Q1060 826 1060 787Z
            M1502 513L1518 614Q1334 665 1028 665L1028 665Q720 665 532 613L532 613L547 512Q736 561 1028 561L1028 561Q1319 561 1502 513L1502 513Z
            M1544 315L1544 315L1514 433Q1319 478 1024 478L1024 478Q732 478 536 433L536 433L504 314Q694 372 1025 372L1025 372Q1184 372 1320 356Q1456 340 1544 315Z
            M397 278L463 522L430 709Q429 709 427 713L427 713Q422 720 398.50 731.50Q375 743 344 771L344 771Q300 808 275.50 831Q251 854 231 881L231 881Q170 965 163 1084L163 1084Q153 1199 256 1313L256 1313Q360 1427 537 1420L537 1420Q603 1416 692 1388L692 1388Q721 1376 751.50 1364.50Q782 1353 812 1341L812 1341Q828 1333 840 1325L840 1325Q835 1346 835 1367L835 1367Q835 1445 890.50 1500Q946 1555 1024 1556L1024 1556Q1102 1556 1157 1500.50Q1212 1445 1212 1368L1212 1368Q1212 1352 1208 1326L1208 1326Q1222 1335 1235 1341L1235 1341Q1281 1361 1356 1388L1356 1388Q1442 1417 1511 1421L1511 1421Q1688 1429 1791 1314L1791 1314Q1892 1200 1885 1085L1885 1085Q1877 966 1816 882L1816 882Q1796 855 1771 831.50Q1746 808 1704 772L1704 772Q1671 744 1648 732.50Q1625 721 1621 714L1621 714Q1620 712 1619 711Q1618 710 1618 709L1618 709L1586 521L1652 274Q1602 229 1428 200Q1254 171 1026 171L1026 171Q794 171 618 201.50Q442 232 397 278L397 278Z
            M988 788L988 788Q988 828 986 898.50Q984 969 971 1016L971 1016Q930 1150 847 1232L847 1232Q804 1274 715 1310L715 1310Q613 1350 522 1350L522 1350Q364 1350 288 1237L288 1237Q245 1177 245 1087L245 1087Q245 989 293 926L293 926Q318 890 389 837Q460 784 509 739L509 739Q596 758 705.50 772Q815 786 988 788Z
            M1024 1039L1024 1039Q1031 1067 1036 1078L1036 1078Q1046 1117 1059 1144L1059 1144Q1065 1161 1076.50 1183.50Q1088 1206 1101 1235L1101 1235Q1109 1252 1118 1276.50Q1127 1301 1136 1325L1136 1325Q1144 1345 1144 1368L1144 1368Q1144 1417 1109 1451.50Q1074 1486 1024 1486L1024 1486Q905 1486 905 1367L905 1367Q905 1344 913 1324L913 1324Q935 1259 947 1234L947 1234Q960 1205 971 1182.50Q982 1160 990 1143L990 1143Q1003 1110 1012 1077L1012 1077Q1014 1071 1024 1039Z
            M1060 1689L1059 1559L988 1559L988 1690L905 1690Q871 1690 871 1723L871 1723L871 1724Q871 1757 905 1757L905 1757L988 1757L988 1842Q988 1877 1024 1877L1024 1877L1024 1877Q1059 1877 1059 1842L1059 1842L1059 1757L1145 1757Q1178 1757 1178 1724L1178 1724L1178 1723Q1178 1690 1145 1690L1145 1690L1060 1689Z
            M912 865L912 865Q787 863 683.50 852Q580 841 523 821L523 821Q493 858 453.50 895.50Q414 933 384 966L384 966Q334 1017 334 1078L334 1078Q334 1153 359 1188L359 1188Q386 1228 442 1247.50Q498 1267 555 1267L555 1267Q627 1267 693 1235L693 1235Q758 1201 779 1181L779 1181Q847 1112 885 1031L885 1031Q898 1001 904.50 947.50Q911 894 912 865Z
            M1024 1210L1024 1210Q1022 1220 1019 1227L1019 1227Q1013 1247 1009 1256L1009 1256Q1006 1263 1001 1273.50Q996 1284 991 1296L991 1296Q988 1303 983.50 1314.50Q979 1326 976 1336L976 1336Q973 1345 973 1355L973 1355Q973 1408 1024 1408L1024 1408Q1077 1408 1077 1356L1077 1356Q1077 1343 1073 1337L1073 1337Q1059 1299 1058 1296L1058 1296Q1043 1266 1039 1257L1039 1257Q1032 1241 1030 1228L1030 1228Q1027 1222 1026 1217.50Q1025 1213 1024 1210Z
        "
    />
</g>
</svg>
