<?xml version="1.0" encoding="UTF-8" standalone="no" ?>
<!-- This file was auto-generated. Copy your changes to a new file. -->
<svg
    width="512"
    height="512"
    viewBox="0 0 2048 2048"
    xmlns="http://www.w3.org/2000/svg"
>
<g transform="scale(1, -1) translate(0, -2048)">
    <path
        d="
            M1024 1621L1024 1621Q967 1621 927.50 1661Q888 1701 888 1758L888 1758Q888 1814 927.50 1854Q967 1894 1024 1894L1024 1894Q1080 1894 1120.50 1854Q1161 1814 1161 1758L1161 1758Q1161 1701 1120.50 1661Q1080 1621 1024 1621Z
            M1024 1691L1024 1691Q1091 1691 1091 1758L1091 1758Q1091 1824 1024 1824L1024 1824Q958 1824 958 1758L958 1758Q958 1691 1024 1691Z
            M1516 588L1533 684Q1340 733 1028 733L1028 733Q708 733 517 683L517 683L532 587Q727 633 1028 633L1028 633Q1327 633 1516 588L1516 588Z
            M1558 744L1558 744L1623 859Q1575 840 1525 840L1525 840Q1391 840 1311 949L1311 949Q1251 899 1177 899L1177 899Q1081 899 1024 974L1024 974Q960 904 871 904L871 904Q799 904 739 953L739 953Q655 846 522 846L522 846Q471 846 421 865L421 865L491 745Q685 801 1024 801L1024 801Q1369 801 1558 744Z
            M1110 983L1110 983L1025 1472L940 989Q943 991 954 999L954 999Q977 1044 1024 1044L1024 1044Q1075 1044 1090 999L1090 999Q1096 993 1110 983Z
            M1387 964L1387 964L1387 1427L1222 973Q1241 980 1254 991L1254 991Q1274 1016 1308 1016L1308 1016Q1348 1016 1372 981L1372 981Q1375 977 1379 972.50Q1383 968 1387 964Z
            M825 978L825 978L661 1427L661 970Q664 974 670 980L670 980Q690 1022 736 1022L736 1022Q774 1022 798 990L798 990Q825 978 825 978Z
            M571 922L571 922L356 1293L411 955Q468 915 522 915L522 915Q543 915 571 922Z
            M1694 1294L1474 917Q1497 910 1525 910L1525 910Q1586 910 1639 948L1639 948L1694 1294Z
            M1534 411L1534 411L1504 524Q1308 567 1024 567L1024 567Q743 567 545 524L545 524L514 410Q700 466 1025 466L1025 466Q1342 466 1534 411Z
            M1575 526L1640 283Q1591 240 1420 211Q1249 182 1026 182L1026 182Q799 182 627 212Q455 242 410 287L410 287L473 527L445 684L357 837L272 1459L321 1478L595 1016L601 1566L669 1578L878 1025L990 1620L1059 1620L1171 1027L1378 1578L1447 1566L1453 1016L1728 1479L1775 1457L1692 838L1603 685L1575 526Z
            M1559 319L1559 319Q1376 395 1028 395L1028 395Q673 395 491 317L491 317Q666 248 1025 248L1025 248Q1197 248 1339.50 267Q1482 286 1559 319Z
            M604 1571L604 1571Q547 1571 507 1610.50Q467 1650 467 1707L467 1707Q467 1763 507 1803Q547 1843 604 1843L604 1843Q660 1843 700 1803Q740 1763 740 1707L740 1707Q740 1650 700 1610.50Q660 1571 604 1571Z
            M604 1641L604 1641Q670 1641 670 1707L670 1707Q670 1773 604 1773L604 1773Q537 1773 537 1707L537 1707Q537 1641 604 1641Z
            M1444 1641L1444 1641Q1511 1641 1511 1707L1511 1707Q1511 1773 1444 1773L1444 1773Q1378 1773 1378 1707L1378 1707Q1378 1641 1444 1641Z
            M1444 1571L1444 1571Q1387 1571 1347.50 1610.50Q1308 1650 1308 1707L1308 1707Q1308 1763 1347.50 1803Q1387 1843 1444 1843L1444 1843Q1501 1843 1541 1803Q1581 1763 1581 1707L1581 1707Q1581 1650 1541 1610.50Q1501 1571 1444 1571Z
            M236 1461L236 1461Q179 1461 139.50 1500.50Q100 1540 100 1597L100 1597Q100 1653 139.50 1693.50Q179 1734 236 1734L236 1734Q293 1734 333 1693.50Q373 1653 373 1597L373 1597Q373 1540 333 1500.50Q293 1461 236 1461Z
            M236 1531L236 1531Q303 1531 303 1597L303 1597Q303 1664 236 1664L236 1664Q170 1664 170 1597L170 1597Q170 1531 236 1531Z
            M1814 1531L1814 1531Q1880 1531 1880 1597L1880 1597Q1880 1664 1814 1664L1814 1664Q1747 1664 1747 1597L1747 1597Q1747 1531 1814 1531Z
            M1814 1461L1814 1461Q1757 1461 1717 1500.50Q1677 1540 1677 1597L1677 1597Q1677 1653 1717 1693.50Q1757 1734 1814 1734L1814 1734Q1870 1734 1910 1693.50Q1950 1653 1950 1597L1950 1597Q1950 1540 1910 1500.50Q1870 1461 1814 1461Z
        "
    />
</g>
</svg>
