<?xml version="1.0" encoding="UTF-8" standalone="no" ?>
<!-- This file was auto-generated. Copy your changes to a new file. -->
<svg
    width="512"
    height="512"
    viewBox="0 0 2048 2048"
    xmlns="http://www.w3.org/2000/svg"
>
<path
    d="
        M499 1317L524 1465Q714 1417 1028 1417L1028 1417Q1336 1417 1525 1463L1525 1463 1550 1316Q1349 1263 1024 1263L1024 1263Q697 1263 499 1317L499 1317Z
        M397 1770L463 1526 430 1339Q429 1339 427 1335L427 1335Q422 1328 398.5 1316.5 375 1305 344 1277L344 1277Q300 1240 275.5 1217 251 1194 231 1167L231 1167Q170 1083 163 964L163 964Q153 849 256 735L256 735Q360 621 537 628L537 628Q603 632 692 660L692 660Q721 672 751.5 683.5 782 695 812 707L812 707Q828 715 840 723L840 723Q835 702 835 681L835 681Q835 603 890.5 548 946 493 1024 492L1024 492Q1102 492 1157 547.5 1212 603 1212 680L1212 680Q1212 696 1208 722L1208 722Q1222 713 1235 707L1235 707Q1281 687 1356 660L1356 660Q1442 631 1511 627L1511 627Q1688 619 1791 734L1791 734Q1892 848 1885 963L1885 963Q1877 1082 1816 1166L1816 1166Q1796 1193 1771 1216.5 1746 1240 1704 1276L1704 1276Q1671 1304 1648 1315.5 1625 1327 1621 1334L1621 1334Q1620 1336 1619 1337 1618 1338 1618 1339L1618 1339 1586 1527 1652 1774Q1602 1819 1428 1848 1254 1877 1026 1877L1026 1877Q794 1877 618 1846.5 442 1816 397 1770L397 1770Z
        M1544 1643L1544 1643 1514 1528Q1316 1484 1024 1484L1024 1484Q733 1484 535 1528L535 1528 503 1644Q694 1588 1025 1588L1025 1588Q1354 1588 1544 1643Z
        M1570 1737L1570 1737Q1377 1659 1028 1659L1028 1659Q666 1659 480 1739L480 1739Q656 1809 1025 1809L1025 1809Q1201 1809 1346 1789.5 1491 1770 1570 1737Z
        M989 1195L989 1195Q988 1156 986 1117.5 984 1079 971 1032L971 1032Q930 898 847 816L847 816Q804 774 715 738L715 738Q613 698 522 698L522 698Q364 698 288 811L288 811Q245 871 245 961L245 961Q245 1059 293 1122L293 1122Q322 1159 367 1196 412 1233 451 1263L451 1263Q626 1200 989 1195Z
        M1024 1009L1024 1009Q1031 981 1036 970L1036 970Q1046 931 1059 904L1059 904Q1065 887 1076.5 864.5 1088 842 1101 813L1101 813Q1109 796 1118 771.5 1127 747 1136 723L1136 723Q1144 703 1144 680L1144 680Q1144 631 1109 596.5 1074 562 1024 562L1024 562Q905 562 905 681L905 681Q905 704 913 724L913 724Q935 789 947 814L947 814Q960 843 971 865.5 982 888 990 905L990 905Q1003 938 1012 971L1012 971Q1014 977 1024 1009Z
        M1058 1195L1058 1195Q1230 1197 1373 1215.5 1516 1234 1597 1262L1597 1262Q1635 1232 1680 1195.5 1725 1159 1755 1121L1755 1121Q1803 1060 1803 960L1803 960Q1803 870 1760 810L1760 810Q1683 698 1526 698L1526 698Q1432 698 1333 737L1333 737Q1246 772 1201 815L1201 815Q1117 899 1077 1031L1077 1031Q1063 1078 1060.5 1116.5 1058 1155 1058 1195Z
        M1060 359L1059 489 988 489 988 358 905 358Q871 358 871 325L871 325 871 324Q871 291 905 291L905 291 988 291 988 206Q988 171 1024 171L1024 171 1024 171Q1059 171 1059 206L1059 206 1059 291 1145 291Q1178 291 1178 324L1178 324 1178 325Q1178 358 1145 358L1145 358 1060 359Z
    "
/>
</svg>
