<?xml version="1.0" encoding="UTF-8" standalone="no" ?>
<svg viewBox="0 0 2048 2048" xmlns="http://www.w3.org/2000/svg">
<!-- This file was auto-generated. Copy your changes to a new file. -->
<g transform="scale(1, -1) translate(0, -2048)">
    <path
        d="
            M533 273L1024 273L1515 273Q1536 345 1536 414L1536 414Q1536 570 1449.50 697Q1363 824 1227 884L1227 884Q1161 889 1161 956L1161 956Q1161 1009 1228 1034L1228 1034Q1321 1099 1321 1206L1321 1206Q1321 1283 1269 1341Q1217 1399 1143 1408L1143 1408Q1083 1413 1083 1476L1083 1476Q1083 1504 1105 1528L1105 1528Q1159 1570 1159 1638L1159 1638Q1159 1694 1119 1734Q1079 1774 1024 1774L1024 1774Q967 1774 927.50 1734Q888 1694 888 1638L888 1638Q888 1571 942 1528L942 1528Q964 1506 964 1476L964 1476Q964 1413 905 1408L905 1408Q830 1399 778.50 1341Q727 1283 727 1206L727 1206Q727 1099 820 1034L820 1034Q887 1008 887 956L887 956Q887 889 820 884L820 884Q684 824 598 697Q512 570 512 414L512 414Q512 340 533 273L533 273Z
            M1564 205L1024 205L484 205Q444 305 444 414L444 414Q444 599 549 746Q654 893 819 956L819 956Q748 989 703.50 1055.50Q659 1122 659 1206L659 1206Q659 1311 729 1388Q799 1465 901 1477L901 1477Q820 1538 820 1638L820 1638Q820 1722 879.50 1782Q939 1842 1024 1842L1024 1842Q1108 1842 1168 1782Q1228 1722 1228 1638L1228 1638Q1228 1538 1147 1477L1147 1477Q1249 1465 1319 1388Q1389 1311 1389 1206L1389 1206Q1389 1122 1343.50 1055.50Q1298 989 1228 956L1228 956Q1393 893 1498 746Q1603 599 1603 414L1603 414Q1603 306 1564 205L1564 205Z
        "
    />
</g>
</svg>
