<?xml version="1.0" encoding="UTF-8" standalone="no" ?>
<!-- This file was auto-generated. Copy your changes to a new file. -->
<svg
    width="512"
    height="512"
    viewBox="0 0 2048 2048"
    xmlns="http://www.w3.org/2000/svg"
>
<path
    d="
        M533 1775L1024 1775 1515 1775Q1536 1703 1536 1634L1536 1634Q1536 1478 1449.5 1351 1363 1224 1227 1164L1227 1164Q1161 1159 1161 1092L1161 1092Q1161 1039 1228 1014L1228 1014Q1321 949 1321 842L1321 842Q1321 765 1269 707 1217 649 1143 640L1143 640Q1083 635 1083 572L1083 572Q1083 544 1105 520L1105 520Q1159 478 1159 410L1159 410Q1159 354 1119 314 1079 274 1024 274L1024 274Q967 274 927.5 314 888 354 888 410L888 410Q888 477 942 520L942 520Q964 542 964 572L964 572Q964 635 905 640L905 640Q830 649 778.5 707 727 765 727 842L727 842Q727 949 820 1014L820 1014Q887 1040 887 1092L887 1092Q887 1159 820 1164L820 1164Q684 1224 598 1351 512 1478 512 1634L512 1634Q512 1708 533 1775L533 1775Z
        M1564 1843L1024 1843 484 1843Q444 1743 444 1634L444 1634Q444 1449 549 1302 654 1155 819 1092L819 1092Q748 1059 703.5 992.5 659 926 659 842L659 842Q659 737 729 660 799 583 901 571L901 571Q820 510 820 410L820 410Q820 326 879.5 266 939 206 1024 206L1024 206Q1108 206 1168 266 1228 326 1228 410L1228 410Q1228 510 1147 571L1147 571Q1249 583 1319 660 1389 737 1389 842L1389 842Q1389 926 1343.5 992.5 1298 1059 1228 1092L1228 1092Q1393 1155 1498 1302 1603 1449 1603 1634L1603 1634Q1603 1742 1564 1843L1564 1843Z
    "
/>
</svg>
