<?xml version="1.0" encoding="UTF-8" standalone="no" ?>
<!-- This file was auto-generated. Copy your changes to a new file. -->
<svg
    width="512"
    height="512"
    viewBox="0 0 2048 2048"
    xmlns="http://www.w3.org/2000/svg"
>
<path
    d="
        M988 991L988 910 905 909Q871 909 871 875L871 875 871 875Q871 841 905 841L905 841 988 841 988 755Q988 720 1024 720L1024 720 1024 720Q1059 720 1059 755L1059 755 1059 841 1145 841Q1178 841 1178 875L1178 875 1178 875Q1178 909 1145 909L1145 909 1059 909 1059 991Q1059 1027 1024 1027L1024 1027 1024 1027Q988 1027 988 991L988 991Z
        M1024 1488L1024 1488Q1092 1488 1156.5 1476.5 1221 1465 1281 1449L1281 1449Q1164 1418 1024 1418L1024 1418Q882 1418 767 1449L767 1449Q825 1465 890 1476.5 955 1488 1024 1488Z
        M1024 399L1024 399Q1092 399 1092 331L1092 331Q1092 263 1024 263L1024 263Q956 263 956 331L956 331Q956 399 1024 399Z
        M1024 1348L1024 1348Q1141 1348 1249 1371L1249 1371 1201 1248Q1113 1234 1024 1234L1024 1234Q933 1234 846 1248L846 1248 798 1371Q905 1348 1024 1348Z
        M1024 1166L1024 1166Q1121 1166 1210 1181L1210 1181Q1308 1146 1352 1072L1352 1072Q1390 1008 1390 931L1390 931Q1390 885 1367 829.5 1344 774 1292 729L1292 729Q1233 680 1163 621.5 1093 563 1024 485L1024 485Q954 563 884 621.5 814 680 756 729L756 729Q703 774 680.5 829.5 658 885 658 931L658 931Q658 1008 695 1072L695 1072Q738 1146 838 1181L838 1181Q926 1166 1024 1166Z
        M988 1543L988 1543 956 1543Q900 1633 849 1656L849 1656Q825 1668 796 1678 767 1688 729 1688L729 1688Q722 1688 622 1672L622 1672Q574 1665 546 1657 518 1649 502 1647L502 1647Q445 1640 369 1653L369 1653Q323 1661 283 1682L283 1682 331 1760Q343 1748 362.5 1744.5 382 1741 398 1737L398 1737Q440 1730 478 1735L478 1735Q491 1738 529 1742.5 567 1747 630 1757L630 1757Q705 1768 732 1768L732 1768Q837 1768 893 1728L893 1728Q927 1702 957.5 1655.5 988 1609 988 1543Z
        M1024 1656L1024 1656Q1010 1713 990 1735 970 1757 937 1781L937 1781Q901 1806 852 1823.5 803 1841 743 1832L743 1832 462 1793Q445 1791 431.5 1793 418 1795 406 1795L406 1795Q385 1795 352.5 1804.5 320 1814 302 1832L302 1832 205 1673Q223 1653 237 1645 251 1637 270 1628L270 1628Q328 1601 394 1595L394 1595Q422 1593 449 1594 476 1595 505 1592L505 1592Q559 1601 613.5 1608.5 668 1616 723 1624L723 1624Q783 1624 804 1612L804 1612Q815 1606 839 1590 863 1574 887 1543L887 1543Q834 1537 779 1522.5 724 1508 682 1492L682 1492 786 1234Q708 1189 677 1161.5 646 1134 628 1098L628 1098Q602 1052 594.5 1009 587 966 588 932L588 932Q589 872 616.5 799.5 644 727 720 670L720 670Q783 622 843 571 903 520 962 452L962 452Q888 414 888 331L888 331Q888 275 927.5 235 967 195 1024 195L1024 195Q1080 195 1120 235 1160 275 1160 331L1160 331Q1160 413 1086 452L1086 452Q1144 520 1203.5 571 1263 622 1328 670L1328 670Q1403 727 1430 799.5 1457 872 1459 932L1459 932Q1459 966 1452 1009 1445 1052 1420 1098L1420 1098Q1400 1134 1369.5 1161.5 1339 1189 1262 1234L1262 1234 1366 1492Q1322 1508 1267 1522.5 1212 1537 1161 1543L1161 1543Q1184 1574 1208 1590 1232 1606 1244 1612L1244 1612Q1265 1624 1325 1624L1325 1624Q1379 1616 1433.5 1608.5 1488 1601 1543 1592L1543 1592Q1570 1595 1597.5 1594 1625 1593 1654 1595L1654 1595Q1718 1601 1778 1628L1778 1628Q1796 1637 1810.5 1645 1825 1653 1843 1673L1843 1673 1745 1832Q1727 1814 1694.5 1804.5 1662 1795 1642 1795L1642 1795Q1629 1795 1615.5 1793 1602 1791 1585 1793L1585 1793 1305 1832Q1245 1841 1193.5 1824 1142 1807 1109 1779L1109 1779Q1076 1752 1056.5 1732.5 1037 1713 1024 1656Z
        M1091 1543L1059 1543Q1059 1609 1089.5 1655.5 1120 1702 1155 1728L1155 1728Q1210 1768 1316 1768L1316 1768Q1342 1768 1418 1757L1418 1757Q1480 1747 1518 1742.5 1556 1738 1569 1735L1569 1735Q1607 1730 1649 1737L1649 1737Q1665 1741 1684.5 1744.5 1704 1748 1717 1760L1717 1760 1765 1682Q1724 1661 1678 1653L1678 1653Q1602 1640 1545 1647L1545 1647Q1528 1649 1500.5 1657 1473 1665 1426 1672L1426 1672Q1325 1688 1319 1688L1319 1688Q1280 1688 1251 1678 1222 1668 1199 1656L1199 1656Q1146 1632 1091 1543L1091 1543Z
    "
/>
</svg>
