<?xml version="1.0" encoding="UTF-8" standalone="no" ?>
<svg viewBox="0 0 2048 2048" xmlns="http://www.w3.org/2000/svg">
<!-- This file was auto-generated. Copy your changes to a new file. -->
<g transform="scale(1, -1) translate(0, -2048)">
    <path
        d="
            M1161 1843L1161 1706L1331 1706L1331 1843L1605 1843L1605 1468L1383 1297L1383 819L1553 649L1553 444L1706 444L1706 205L341 205L341 444L494 444L494 649L665 819L665 1297L443 1468L443 1843L716 1843L716 1706L887 1706L887 1843L1161 1843Z
            M1639 273L1639 376L409 376L409 273L1639 273Z
            M1484 444L1484 580L564 580L564 444L1484 444Z
            M1314 819L1314 1297L734 1297L734 819L1314 819Z
            M512 1536L1536 1536L1536 1775L1399 1775L1399 1638L1091 1638L1091 1775L956 1775L956 1638L649 1638L649 1775L512 1775L512 1536Z
            M588 649L1459 649L1356 751L693 751L588 649Z
            M700 1365L1349 1365L1476 1468L572 1468L700 1365Z
        "
    />
</g>
</svg>
