<?xml version="1.0" encoding="UTF-8" standalone="no" ?>
<!-- This file was auto-generated. Copy your changes to a new file. -->
<svg
    width="512"
    height="512"
    viewBox="0 0 2048 2048"
    xmlns="http://www.w3.org/2000/svg"
>
<g transform="scale(1, -1) translate(0, -2048)">
    <path
        d="
            M697 1359L697 1359Q710 1339 707 1317L707 1317Q697 1253 636 1263L636 1263Q618 1266 607 1275L607 1275Q603 1270 595 1253L595 1253Q584 1221 553 1231L553 1231Q522 1243 529 1276L529 1276Q574 1391 692 1434L692 1434Q726 1444 737 1414L737 1414Q749 1382 719 1370L719 1370Q713 1367 708 1364.50Q703 1362 697 1359Z
            M400 882L400 882Q371 864 365 834L365 834Q366 801 334 798L334 798Q299 794 298 828L298 828Q302 894 357 933L357 933Q383 954 405 929L405 929Q427 902 400 882Z
            M1079 1697L1079 1697Q1236 1687 1370 1616Q1504 1545 1598 1434L1598 1434Q1664 1356 1722.50 1246Q1781 1136 1816 1013L1816 1013Q1856 870 1866.50 712.50Q1877 555 1877 421L1877 421L1877 203Q1877 203 1721.50 203Q1566 203 1318 203L1318 203L647 203Q638 203 638.50 252Q639 301 645 331L645 331Q649 355 664 399Q679 443 714 506L714 506Q730 538 790 599.50Q850 661 928 742L928 742Q973 788 998.50 858Q1024 928 1020 985L1020 985Q983 955 939 936L939 936Q727 860 632 716L632 716Q625 707 587 635L587 635Q567 597 553 583L553 583Q534 564 498 562L498 562Q442 559 411 616L411 616Q369 604 336 606L336 606Q280 627 255 651L255 651Q204 702 188.50 753Q173 804 173 863L173 863Q173 947 277 1085L277 1085Q399 1244 407 1327L407 1327Q407 1363 414 1408L414 1408Q420 1439 439 1468L439 1468Q452 1488 456.50 1495.50Q461 1503 473 1518L473 1518Q482 1530 488 1536.50Q494 1543 503 1554L503 1554Q514 1567 531 1584L531 1584Q478 1730 488 1885L488 1885Q687 1814 822 1662L822 1662Q855 1775 952 1845L952 1845Q1032 1789 1079 1697Z
            M1209 274L1756 274Q1755 274 1758 328.50Q1761 383 1761 446L1761 446Q1762 571 1761 704.50Q1760 838 1725 971L1725 971Q1691 1099 1650 1189.50Q1609 1280 1561 1346L1561 1346Q1489 1454 1365 1529Q1241 1604 1106 1627L1106 1627Q1115 1578 1114 1531L1114 1531Q1112 1495 1080 1495L1080 1495Q1043 1495 1047 1531L1047 1531Q1050 1663 953 1757L953 1757Q877 1677 871 1571L871 1571Q869 1536 835 1540L835 1540Q803 1541 803 1577L803 1577Q803 1577 805 1585L805 1585Q764 1572 719 1548L719 1548Q690 1528 672 1558L672 1558Q654 1588 688 1605L688 1605Q731 1627 753 1638L753 1638Q667 1726 557 1780L557 1780Q569 1641 633 1517L633 1517Q650 1491 625 1471L625 1471Q597 1449 578 1478L578 1478Q571 1488 558 1514L558 1514Q537 1493 530 1483L530 1483Q523 1474 505.50 1443Q488 1412 480 1392L480 1392Q471 1367 472.50 1351.50Q474 1336 475 1317L475 1317Q466 1258 434.50 1206Q403 1154 354 1079L354 1079Q307 1007 282 971Q257 935 244 879L244 879Q235 845 244 796.50Q253 748 283 721L283 721Q329 674 372 678L372 678Q386 678 409.50 689Q433 700 446 731L446 731Q472 788 489 788L489 788Q514 788 516 760L516 760Q516 754 500 710L500 710Q491 690 476 668L476 668Q457 642 459 646L459 646Q475 589 512 626L512 626Q523 637 537 667Q551 697 581 748L581 748Q616 807 656 844Q696 881 727 904L727 904Q745 917 771 934Q797 951 841 969L841 969Q876 983 918.50 1003.50Q961 1024 994 1056L994 1056Q1040 1101 1065 1167L1065 1167Q1078 1204 1075 1258L1075 1258Q1066 1292 1109 1292L1109 1292Q1141 1292 1145 1259L1145 1259Q1145 1146 1081 1053L1081 1053Q1102 989 1092 913L1092 913Q1083 852 1049.50 782.50Q1016 713 914 628L914 628Q707 456 718 274L718 274Q718 274 888.50 274Q1059 274 1209 274L1209 274Z
        "
    />
</g>
</svg>
