<?xml version="1.0" encoding="UTF-8" standalone="no" ?>
<!-- This file was auto-generated. Copy your changes to a new file. -->
<svg
    width="512"
    height="512"
    viewBox="0 0 2048 2048"
    xmlns="http://www.w3.org/2000/svg"
>
<path
    d="
        M1161 205L1161 342 1331 342 1331 205 1605 205 1605 580 1383 751 1383 1229 1553 1399 1553 1604 1706 1604 1706 1843 341 1843 341 1604 494 1604 494 1399 665 1229 665 751 443 580 443 205 716 205 716 342 887 342 887 205 1161 205Z
        M1639 1775L1639 1672 409 1672 409 1775 1639 1775Z
        M1484 1604L1484 1468 564 1468 564 1604 1484 1604Z
        M1314 1229L1314 751 734 751 734 1229 1314 1229Z
        M512 512L1536 512 1536 273 1399 273 1399 410 1091 410 1091 273 956 273 956 410 649 410 649 273 512 273 512 512Z
        M588 1399L1459 1399 1356 1297 693 1297 588 1399Z
        M700 683L1349 683 1476 580 572 580 700 683Z
    "
/>
</svg>
