<?xml version="1.0" encoding="UTF-8" standalone="no" ?>
<!-- This file was auto-generated. Copy your changes to a new file. -->
<svg
    width="512"
    height="512"
    viewBox="0 0 2048 2048"
    xmlns="http://www.w3.org/2000/svg"
>
<path
    d="
        M697 689L697 689Q710 709 707 731L707 731Q697 795 636 785L636 785Q618 782 607 773L607 773Q603 778 595 795L595 795Q584 827 553 817L553 817Q522 805 529 772L529 772Q574 657 692 614L692 614Q726 604 737 634L737 634Q749 666 719 678L719 678Q713 681 708 683.5 703 686 697 689Z
        M400 1166L400 1166Q371 1184 365 1214L365 1214Q366 1247 334 1250L334 1250Q299 1254 298 1220L298 1220Q302 1154 357 1115L357 1115Q383 1094 405 1119L405 1119Q427 1146 400 1166Z
        M1079 351L1079 351Q1236 361 1370 432 1504 503 1598 614L1598 614Q1664 692 1722.5 802 1781 912 1816 1035L1816 1035Q1856 1178 1866.5 1335.5 1877 1493 1877 1627L1877 1627 1877 1845Q1877 1845 1721.5 1845 1566 1845 1318 1845L1318 1845 647 1845Q638 1845 638.5 1796 639 1747 645 1717L645 1717Q649 1693 664 1649 679 1605 714 1542L714 1542Q730 1510 790 1448.5 850 1387 928 1306L928 1306Q973 1260 998.5 1190 1024 1120 1020 1063L1020 1063Q983 1093 939 1112L939 1112Q727 1188 632 1332L632 1332Q625 1341 587 1413L587 1413Q567 1451 553 1465L553 1465Q534 1484 498 1486L498 1486Q442 1489 411 1432L411 1432Q369 1444 336 1442L336 1442Q280 1421 255 1397L255 1397Q204 1346 188.5 1295 173 1244 173 1185L173 1185Q173 1101 277 963L277 963Q399 804 407 721L407 721Q407 685 414 640L414 640Q420 609 439 580L439 580Q452 560 456.5 552.5 461 545 473 530L473 530Q482 518 488 511.5 494 505 503 494L503 494Q514 481 531 464L531 464Q478 318 488 163L488 163Q687 234 822 386L822 386Q855 273 952 203L952 203Q1032 259 1079 351Z
        M1209 1774L1756 1774Q1755 1774 1758 1719.5 1761 1665 1761 1602L1761 1602Q1762 1477 1761 1343.5 1760 1210 1725 1077L1725 1077Q1691 949 1650 858.5 1609 768 1561 702L1561 702Q1489 594 1365 519 1241 444 1106 421L1106 421Q1115 470 1114 517L1114 517Q1112 553 1080 553L1080 553Q1043 553 1047 517L1047 517Q1050 385 953 291L953 291Q877 371 871 477L871 477Q869 512 835 508L835 508Q803 507 803 471L803 471Q803 471 805 463L805 463Q764 476 719 500L719 500Q690 520 672 490L672 490Q654 460 688 443L688 443Q731 421 753 410L753 410Q667 322 557 268L557 268Q569 407 633 531L633 531Q650 557 625 577L625 577Q597 599 578 570L578 570Q571 560 558 534L558 534Q537 555 530 565L530 565Q523 574 505.5 605 488 636 480 656L480 656Q471 681 472.5 696.5 474 712 475 731L475 731Q466 790 434.5 842 403 894 354 969L354 969Q307 1041 282 1077 257 1113 244 1169L244 1169Q235 1203 244 1251.5 253 1300 283 1327L283 1327Q329 1374 372 1370L372 1370Q386 1370 409.5 1359 433 1348 446 1317L446 1317Q472 1260 489 1260L489 1260Q514 1260 516 1288L516 1288Q516 1294 500 1338L500 1338Q491 1358 476 1380L476 1380Q457 1406 459 1402L459 1402Q475 1459 512 1422L512 1422Q523 1411 537 1381 551 1351 581 1300L581 1300Q616 1241 656 1204 696 1167 727 1144L727 1144Q745 1131 771 1114 797 1097 841 1079L841 1079Q876 1065 918.5 1044.5 961 1024 994 992L994 992Q1040 947 1065 881L1065 881Q1078 844 1075 790L1075 790Q1066 756 1109 756L1109 756Q1141 756 1145 789L1145 789Q1145 902 1081 995L1081 995Q1102 1059 1092 1135L1092 1135Q1083 1196 1049.5 1265.5 1016 1335 914 1420L914 1420Q707 1592 718 1774L718 1774Q718 1774 888.5 1774 1059 1774 1209 1774L1209 1774Z
    "
/>
</svg>
