<?xml version="1.0" encoding="UTF-8" standalone="no" ?>
<!-- This file was auto-generated. Copy your changes to a new file. -->
<svg
    width="512"
    height="512"
    viewBox="0 0 2048 2048"
    xmlns="http://www.w3.org/2000/svg"
>
<path
    d="
        M1024 427L1024 427Q967 427 927.5 387 888 347 888 290L888 290Q888 234 927.5 194 967 154 1024 154L1024 154Q1080 154 1120.5 194 1161 234 1161 290L1161 290Q1161 347 1120.5 387 1080 427 1024 427Z
        M1024 357L1024 357Q1091 357 1091 290L1091 290Q1091 224 1024 224L1024 224Q958 224 958 290L958 290Q958 357 1024 357Z
        M1516 1460L1533 1364Q1340 1315 1028 1315L1028 1315Q708 1315 517 1365L517 1365 532 1461Q727 1415 1028 1415L1028 1415Q1327 1415 1516 1460L1516 1460Z
        M1558 1304L1558 1304 1623 1189Q1575 1208 1525 1208L1525 1208Q1391 1208 1311 1099L1311 1099Q1251 1149 1177 1149L1177 1149Q1081 1149 1024 1074L1024 1074Q960 1144 871 1144L871 1144Q799 1144 739 1095L739 1095Q655 1202 522 1202L522 1202Q471 1202 421 1183L421 1183 491 1303Q685 1247 1024 1247L1024 1247Q1369 1247 1558 1304Z
        M1110 1065L1110 1065 1025 576 940 1059Q943 1057 954 1049L954 1049Q977 1004 1024 1004L1024 1004Q1075 1004 1090 1049L1090 1049Q1096 1055 1110 1065Z
        M1387 1084L1387 1084 1387 621 1222 1075Q1241 1068 1254 1057L1254 1057Q1274 1032 1308 1032L1308 1032Q1348 1032 1372 1067L1372 1067Q1375 1071 1379 1075.5 1383 1080 1387 1084Z
        M825 1070L825 1070 661 621 661 1078Q664 1074 670 1068L670 1068Q690 1026 736 1026L736 1026Q774 1026 798 1058L798 1058Q825 1070 825 1070Z
        M571 1126L571 1126 356 755 411 1093Q468 1133 522 1133L522 1133Q543 1133 571 1126Z
        M1694 754L1474 1131Q1497 1138 1525 1138L1525 1138Q1586 1138 1639 1100L1639 1100 1694 754Z
        M1534 1637L1534 1637 1504 1524Q1308 1481 1024 1481L1024 1481Q743 1481 545 1524L545 1524 514 1638Q700 1582 1025 1582L1025 1582Q1342 1582 1534 1637Z
        M1575 1522L1640 1765Q1591 1808 1420 1837 1249 1866 1026 1866L1026 1866Q799 1866 627 1836 455 1806 410 1761L410 1761 473 1521 445 1364 357 1211 272 589 321 570 595 1032 601 482 669 470 878 1023 990 428 1059 428 1171 1021 1378 470 1447 482 1453 1032 1728 569 1775 591 1692 1210 1603 1363 1575 1522Z
        M1559 1729L1559 1729Q1376 1653 1028 1653L1028 1653Q673 1653 491 1731L491 1731Q666 1800 1025 1800L1025 1800Q1197 1800 1339.5 1781 1482 1762 1559 1729Z
        M604 477L604 477Q547 477 507 437.5 467 398 467 341L467 341Q467 285 507 245 547 205 604 205L604 205Q660 205 700 245 740 285 740 341L740 341Q740 398 700 437.5 660 477 604 477Z
        M604 407L604 407Q670 407 670 341L670 341Q670 275 604 275L604 275Q537 275 537 341L537 341Q537 407 604 407Z
        M1444 407L1444 407Q1511 407 1511 341L1511 341Q1511 275 1444 275L1444 275Q1378 275 1378 341L1378 341Q1378 407 1444 407Z
        M1444 477L1444 477Q1387 477 1347.5 437.5 1308 398 1308 341L1308 341Q1308 285 1347.5 245 1387 205 1444 205L1444 205Q1501 205 1541 245 1581 285 1581 341L1581 341Q1581 398 1541 437.5 1501 477 1444 477Z
        M236 587L236 587Q179 587 139.5 547.5 100 508 100 451L100 451Q100 395 139.5 354.5 179 314 236 314L236 314Q293 314 333 354.5 373 395 373 451L373 451Q373 508 333 547.5 293 587 236 587Z
        M236 517L236 517Q303 517 303 451L303 451Q303 384 236 384L236 384Q170 384 170 451L170 451Q170 517 236 517Z
        M1814 517L1814 517Q1880 517 1880 451L1880 451Q1880 384 1814 384L1814 384Q1747 384 1747 451L1747 451Q1747 517 1814 517Z
        M1814 587L1814 587Q1757 587 1717 547.5 1677 508 1677 451L1677 451Q1677 395 1717 354.5 1757 314 1814 314L1814 314Q1870 314 1910 354.5 1950 395 1950 451L1950 451Q1950 508 1910 547.5 1870 587 1814 587Z
    "
/>
</svg>
