<?xml version="1.0" encoding="UTF-8" standalone="no" ?>
<svg viewBox="0 0 2048 2048" xmlns="http://www.w3.org/2000/svg">
<!-- This file was auto-generated. Copy your changes to a new file. -->
<g transform="scale(1, -1) translate(0, -2048)">
    <path
        d="
            M499 731L524 583Q714 631 1028 631L1028 631Q1336 631 1525 585L1525 585L1550 732Q1349 785 1024 785L1024 785Q697 785 499 731L499 731Z
            M397 278L463 522L430 709Q429 709 427 713L427 713Q422 720 398.50 731.50Q375 743 344 771L344 771Q300 808 275.50 831Q251 854 231 881L231 881Q170 965 163 1084L163 1084Q153 1199 256 1313L256 1313Q360 1427 537 1420L537 1420Q603 1416 692 1388L692 1388Q721 1376 751.50 1364.50Q782 1353 812 1341L812 1341Q828 1333 840 1325L840 1325Q835 1346 835 1367L835 1367Q835 1445 890.50 1500Q946 1555 1024 1556L1024 1556Q1102 1556 1157 1500.50Q1212 1445 1212 1368L1212 1368Q1212 1352 1208 1326L1208 1326Q1222 1335 1235 1341L1235 1341Q1281 1361 1356 1388L1356 1388Q1442 1417 1511 1421L1511 1421Q1688 1429 1791 1314L1791 1314Q1892 1200 1885 1085L1885 1085Q1877 966 1816 882L1816 882Q1796 855 1771 831.50Q1746 808 1704 772L1704 772Q1671 744 1648 732.50Q1625 721 1621 714L1621 714Q1620 712 1619 711Q1618 710 1618 709L1618 709L1586 521L1652 274Q1602 229 1428 200Q1254 171 1026 171L1026 171Q794 171 618 201.50Q442 232 397 278L397 278Z
            M1544 405L1544 405L1514 520Q1316 564 1024 564L1024 564Q733 564 535 520L535 520L503 404Q694 460 1025 460L1025 460Q1354 460 1544 405Z
            M1570 311L1570 311Q1377 389 1028 389L1028 389Q666 389 480 309L480 309Q656 239 1025 239L1025 239Q1201 239 1346 258.50Q1491 278 1570 311Z
            M989 853L989 853Q988 892 986 930.50Q984 969 971 1016L971 1016Q930 1150 847 1232L847 1232Q804 1274 715 1310L715 1310Q613 1350 522 1350L522 1350Q364 1350 288 1237L288 1237Q245 1177 245 1087L245 1087Q245 989 293 926L293 926Q322 889 367 852Q412 815 451 785L451 785Q626 848 989 853Z
            M1024 1039L1024 1039Q1031 1067 1036 1078L1036 1078Q1046 1117 1059 1144L1059 1144Q1065 1161 1076.50 1183.50Q1088 1206 1101 1235L1101 1235Q1109 1252 1118 1276.50Q1127 1301 1136 1325L1136 1325Q1144 1345 1144 1368L1144 1368Q1144 1417 1109 1451.50Q1074 1486 1024 1486L1024 1486Q905 1486 905 1367L905 1367Q905 1344 913 1324L913 1324Q935 1259 947 1234L947 1234Q960 1205 971 1182.50Q982 1160 990 1143L990 1143Q1003 1110 1012 1077L1012 1077Q1014 1071 1024 1039Z
            M1058 853L1058 853Q1230 851 1373 832.50Q1516 814 1597 786L1597 786Q1635 816 1680 852.50Q1725 889 1755 927L1755 927Q1803 988 1803 1088L1803 1088Q1803 1178 1760 1238L1760 1238Q1683 1350 1526 1350L1526 1350Q1432 1350 1333 1311L1333 1311Q1246 1276 1201 1233L1201 1233Q1117 1149 1077 1017L1077 1017Q1063 970 1060.50 931.50Q1058 893 1058 853Z
            M1060 1689L1059 1559L988 1559L988 1690L905 1690Q871 1690 871 1723L871 1723L871 1724Q871 1757 905 1757L905 1757L988 1757L988 1842Q988 1877 1024 1877L1024 1877L1024 1877Q1059 1877 1059 1842L1059 1842L1059 1757L1145 1757Q1178 1757 1178 1724L1178 1724L1178 1723Q1178 1690 1145 1690L1145 1690L1060 1689Z
        "
    />
</g>
</svg>
