<?xml version="1.0" encoding="UTF-8" standalone="no" ?>
<svg viewBox="0 0 2048 2048" xmlns="http://www.w3.org/2000/svg">
<!-- This file was auto-generated. Copy your changes to a new file. -->
<g transform="scale(1, -1) translate(0, -2048)">
    <path
        d="
            M988 1057L988 1138L905 1139Q871 1139 871 1173L871 1173L871 1173Q871 1207 905 1207L905 1207L988 1207L988 1293Q988 1328 1024 1328L1024 1328L1024 1328Q1059 1328 1059 1293L1059 1293L1059 1207L1145 1207Q1178 1207 1178 1173L1178 1173L1178 1173Q1178 1139 1145 1139L1145 1139L1059 1139L1059 1057Q1059 1021 1024 1021L1024 1021L1024 1021Q988 1021 988 1057L988 1057Z
            M1024 560L1024 560Q1092 560 1156.50 571.50Q1221 583 1281 599L1281 599Q1164 630 1024 630L1024 630Q882 630 767 599L767 599Q825 583 890 571.50Q955 560 1024 560Z
            M1024 1649L1024 1649Q1092 1649 1092 1717L1092 1717Q1092 1785 1024 1785L1024 1785Q956 1785 956 1717L956 1717Q956 1649 1024 1649Z
            M1024 700L1024 700Q1141 700 1249 677L1249 677L1201 800Q1113 814 1024 814L1024 814Q933 814 846 800L846 800L798 677Q905 700 1024 700Z
            M1024 882L1024 882Q1121 882 1210 867L1210 867Q1308 902 1352 976L1352 976Q1390 1040 1390 1117L1390 1117Q1390 1163 1367 1218.50Q1344 1274 1292 1319L1292 1319Q1233 1368 1163 1426.50Q1093 1485 1024 1563L1024 1563Q954 1485 884 1426.50Q814 1368 756 1319L756 1319Q703 1274 680.50 1218.50Q658 1163 658 1117L658 1117Q658 1040 695 976L695 976Q738 902 838 867L838 867Q926 882 1024 882Z
            M988 505L988 505L956 505Q900 415 849 392L849 392Q825 380 796 370Q767 360 729 360L729 360Q722 360 622 376L622 376Q574 383 546 391Q518 399 502 401L502 401Q445 408 369 395L369 395Q323 387 283 366L283 366L331 288Q343 300 362.50 303.50Q382 307 398 311L398 311Q440 318 478 313L478 313Q491 310 529 305.50Q567 301 630 291L630 291Q705 280 732 280L732 280Q837 280 893 320L893 320Q927 346 957.50 392.50Q988 439 988 505Z
            M1024 392L1024 392Q1010 335 990 313Q970 291 937 267L937 267Q901 242 852 224.50Q803 207 743 216L743 216L462 255Q445 257 431.50 255Q418 253 406 253L406 253Q385 253 352.50 243.50Q320 234 302 216L302 216L205 375Q223 395 237 403Q251 411 270 420L270 420Q328 447 394 453L394 453Q422 455 449 454Q476 453 505 456L505 456Q559 447 613.50 439.50Q668 432 723 424L723 424Q783 424 804 436L804 436Q815 442 839 458Q863 474 887 505L887 505Q834 511 779 525.50Q724 540 682 556L682 556L786 814Q708 859 677 886.50Q646 914 628 950L628 950Q602 996 594.50 1039Q587 1082 588 1116L588 1116Q589 1176 616.50 1248.50Q644 1321 720 1378L720 1378Q783 1426 843 1477Q903 1528 962 1596L962 1596Q888 1634 888 1717L888 1717Q888 1773 927.50 1813Q967 1853 1024 1853L1024 1853Q1080 1853 1120 1813Q1160 1773 1160 1717L1160 1717Q1160 1635 1086 1596L1086 1596Q1144 1528 1203.50 1477Q1263 1426 1328 1378L1328 1378Q1403 1321 1430 1248.50Q1457 1176 1459 1116L1459 1116Q1459 1082 1452 1039Q1445 996 1420 950L1420 950Q1400 914 1369.50 886.50Q1339 859 1262 814L1262 814L1366 556Q1322 540 1267 525.50Q1212 511 1161 505L1161 505Q1184 474 1208 458Q1232 442 1244 436L1244 436Q1265 424 1325 424L1325 424Q1379 432 1433.50 439.50Q1488 447 1543 456L1543 456Q1570 453 1597.50 454Q1625 455 1654 453L1654 453Q1718 447 1778 420L1778 420Q1796 411 1810.50 403Q1825 395 1843 375L1843 375L1745 216Q1727 234 1694.50 243.50Q1662 253 1642 253L1642 253Q1629 253 1615.50 255Q1602 257 1585 255L1585 255L1305 216Q1245 207 1193.50 224Q1142 241 1109 269L1109 269Q1076 296 1056.50 315.50Q1037 335 1024 392Z
            M1091 505L1059 505Q1059 439 1089.50 392.50Q1120 346 1155 320L1155 320Q1210 280 1316 280L1316 280Q1342 280 1418 291L1418 291Q1480 301 1518 305.50Q1556 310 1569 313L1569 313Q1607 318 1649 311L1649 311Q1665 307 1684.50 303.50Q1704 300 1717 288L1717 288L1765 366Q1724 387 1678 395L1678 395Q1602 408 1545 401L1545 401Q1528 399 1500.50 391Q1473 383 1426 376L1426 376Q1325 360 1319 360L1319 360Q1280 360 1251 370Q1222 380 1199 392L1199 392Q1146 416 1091 505L1091 505Z
        "
    />
</g>
</svg>
